<svg width="500" height="500" viewBox="0 0 500 500" fill="none" xmlns="http://www.w3.org/2000/svg">
<path d="M274.77 178C280.44 107.7 224.99 52.79 227.3 83.12C233.67 165.22 225.1 212.45 187.91 264.95C228.62 264.95 270.39 226.91 274.77 178Z" fill="#FFCB57"/>
<path d="M268.72 241.54C297.65 206.43 318.6 150.9 313.44 83.31C311.59 59.13 344.93 88.28 355.86 139.54C364.18 178.58 359.09 230.44 318.03 281.34C318.03 281.34 368.04 261.27 396.66 198.87C416.33 155.99 439.56 302.21 314.96 367.39C314.96 367.39 356.78 363.41 390.64 337.69C429.09 308.47 381.06 412.7 288.04 431.24C229.27 442.95 153.79 426.5 119.22 363.91C89.5202 310.13 117.94 251.7 63.9502 221.86C82.9602 193.92 115.42 195.69 134.01 212.76C159.53 238.12 148.08 264.98 169.72 277.01C197.53 292.46 243.37 271.44 268.72 241.54Z" fill="#32A9FE"/>
</svg>
